<?xml version="1.0" encoding="UTF-8" standalone="no"?>
<!DOCTYPE svg PUBLIC "-//W3C//DTD SVG 1.1//EN"
 "http://www.w3.org/Graphics/SVG/1.1/DTD/svg11.dtd">
<!-- Generated by graphviz version 2.40.1 (20161225.0304)
 -->
<!-- Title: snakemake_dag Pages: 1 -->
<svg width="953pt" height="188pt"
 viewBox="0.00 0.00 952.95 188.00" xmlns="http://www.w3.org/2000/svg" xmlns:xlink="http://www.w3.org/1999/xlink">
<g id="graph0" class="graph" transform="scale(1 1) rotate(0) translate(4 184)">
<title>snakemake_dag</title>
<polygon fill="#ffffff" stroke="transparent" points="-4,4 -4,-184 948.9482,-184 948.9482,4 -4,4"/>
<!-- 0 -->
<g id="node1" class="node">
<title>0</title>
<path fill="none" stroke="#ced856" stroke-width="2" d="M290.9224,-36C290.9224,-36 12.0259,-36 12.0259,-36 6.0259,-36 .0259,-30 .0259,-24 .0259,-24 .0259,-12 .0259,-12 .0259,-6 6.0259,0 12.0259,0 12.0259,0 290.9224,0 290.9224,0 296.9224,0 302.9224,-6 302.9224,-12 302.9224,-12 302.9224,-24 302.9224,-24 302.9224,-30 296.9224,-36 290.9224,-36"/>
<text text-anchor="middle" x="151.4741" y="-20" font-family="sans" font-size="10.00" fill="#000000">align_hisat</text>
<text text-anchor="middle" x="151.4741" y="-10" font-family="sans" font-size="10.00" fill="#000000">sample: UHR_Rep2_ERCC&#45;Mix1_Build37&#45;ErccTranscripts&#45;chr22</text>
</g>
<!-- 1 -->
<g id="node2" class="node">
<title>1</title>
<path fill="none" stroke="#ced856" stroke-width="2" stroke-dasharray="5,2" d="M611.9224,-36C611.9224,-36 333.0259,-36 333.0259,-36 327.0259,-36 321.0259,-30 321.0259,-24 321.0259,-24 321.0259,-12 321.0259,-12 321.0259,-6 327.0259,0 333.0259,0 333.0259,0 611.9224,0 611.9224,0 617.9224,0 623.9224,-6 623.9224,-12 623.9224,-12 623.9224,-24 623.9224,-24 623.9224,-30 617.9224,-36 611.9224,-36"/>
<text text-anchor="middle" x="472.4741" y="-20" font-family="sans" font-size="10.00" fill="#000000">align_hisat</text>
<text text-anchor="middle" x="472.4741" y="-10" font-family="sans" font-size="10.00" fill="#000000">sample: UHR_Rep3_ERCC&#45;Mix1_Build37&#45;ErccTranscripts&#45;chr22</text>
</g>
<!-- 2 -->
<g id="node3" class="node">
<title>2</title>
<path fill="none" stroke="#ced856" stroke-width="2" stroke-dasharray="5,2" d="M932.9224,-36C932.9224,-36 654.0259,-36 654.0259,-36 648.0259,-36 642.0259,-30 642.0259,-24 642.0259,-24 642.0259,-12 642.0259,-12 642.0259,-6 648.0259,0 654.0259,0 654.0259,0 932.9224,0 932.9224,0 938.9224,0 944.9224,-6 944.9224,-12 944.9224,-12 944.9224,-24 944.9224,-24 944.9224,-30 938.9224,-36 932.9224,-36"/>
<text text-anchor="middle" x="793.4741" y="-20" font-family="sans" font-size="10.00" fill="#000000">align_hisat</text>
<text text-anchor="middle" x="793.4741" y="-10" font-family="sans" font-size="10.00" fill="#000000">sample: UHR_Rep1_ERCC&#45;Mix1_Build37&#45;ErccTranscripts&#45;chr22</text>
</g>
<!-- 3 -->
<g id="node4" class="node">
<title>3</title>
<path fill="none" stroke="#d85656" stroke-width="2" stroke-dasharray="5,2" d="M507.2548,-108C507.2548,-108 437.6934,-108 437.6934,-108 431.6934,-108 425.6934,-102 425.6934,-96 425.6934,-96 425.6934,-84 425.6934,-84 425.6934,-78 431.6934,-72 437.6934,-72 437.6934,-72 507.2548,-72 507.2548,-72 513.2548,-72 519.2548,-78 519.2548,-84 519.2548,-84 519.2548,-96 519.2548,-96 519.2548,-102 513.2548,-108 507.2548,-108"/>
<text text-anchor="middle" x="472.4741" y="-87" font-family="sans" font-size="10.00" fill="#000000">build_hisat_index</text>
</g>
<!-- 3&#45;&gt;0 -->
<g id="edge1" class="edge">
<title>3&#45;&gt;0</title>
<path fill="none" stroke="#c0c0c0" stroke-width="2" d="M425.798,-79.5306C377.7014,-68.7426 301.5088,-51.6526 241.6145,-38.2184"/>
<polygon fill="#c0c0c0" stroke="#c0c0c0" stroke-width="2" points="242.2943,-34.784 231.7707,-36.0104 240.7622,-41.6143 242.2943,-34.784"/>
</g>
<!-- 3&#45;&gt;1 -->
<g id="edge2" class="edge">
<title>3&#45;&gt;1</title>
<path fill="none" stroke="#c0c0c0" stroke-width="2" d="M472.4741,-71.8314C472.4741,-64.131 472.4741,-54.9743 472.4741,-46.4166"/>
<polygon fill="#c0c0c0" stroke="#c0c0c0" stroke-width="2" points="475.9742,-46.4132 472.4741,-36.4133 468.9742,-46.4133 475.9742,-46.4132"/>
</g>
<!-- 3&#45;&gt;2 -->
<g id="edge3" class="edge">
<title>3&#45;&gt;2</title>
<path fill="none" stroke="#c0c0c0" stroke-width="2" d="M519.1503,-79.5306C567.2468,-68.7426 643.4395,-51.6526 703.3338,-38.2184"/>
<polygon fill="#c0c0c0" stroke="#c0c0c0" stroke-width="2" points="704.186,-41.6143 713.1776,-36.0104 702.6539,-34.784 704.186,-41.6143"/>
</g>
<!-- 4 -->
<g id="node5" class="node">
<title>4</title>
<path fill="none" stroke="#56d89a" stroke-width="2" stroke-dasharray="5,2" d="M445.4292,-180C445.4292,-180 349.519,-180 349.519,-180 343.519,-180 337.519,-174 337.519,-168 337.519,-168 337.519,-156 337.519,-156 337.519,-150 343.519,-144 349.519,-144 349.519,-144 445.4292,-144 445.4292,-144 451.4292,-144 457.4292,-150 457.4292,-156 457.4292,-156 457.4292,-168 457.4292,-168 457.4292,-174 451.4292,-180 445.4292,-180"/>
<text text-anchor="middle" x="397.4741" y="-159" font-family="sans" font-size="10.00" fill="#000000">extract_genome_exons</text>
</g>
<!-- 4&#45;&gt;3 -->
<g id="edge4" class="edge">
<title>4&#45;&gt;3</title>
<path fill="none" stroke="#c0c0c0" stroke-width="2" d="M416.3998,-143.8314C425.4598,-135.1337 436.455,-124.5783 446.3007,-115.1265"/>
<polygon fill="#c0c0c0" stroke="#c0c0c0" stroke-width="2" points="448.7645,-117.613 453.5545,-108.1628 443.9167,-112.5633 448.7645,-117.613"/>
</g>
<!-- 5 -->
<g id="node6" class="node">
<title>5</title>
<path fill="none" stroke="#70d856" stroke-width="2" stroke-dasharray="5,2" d="M607.9341,-180C607.9341,-180 487.0142,-180 487.0142,-180 481.0142,-180 475.0142,-174 475.0142,-168 475.0142,-168 475.0142,-156 475.0142,-156 475.0142,-150 481.0142,-144 487.0142,-144 487.0142,-144 607.9341,-144 607.9341,-144 613.9341,-144 619.9341,-150 619.9341,-156 619.9341,-156 619.9341,-168 619.9341,-168 619.9341,-174 613.9341,-180 607.9341,-180"/>
<text text-anchor="middle" x="547.4741" y="-159" font-family="sans" font-size="10.00" fill="#000000">extract_genome_splice_sites</text>
</g>
<!-- 5&#45;&gt;3 -->
<g id="edge5" class="edge">
<title>5&#45;&gt;3</title>
<path fill="none" stroke="#c0c0c0" stroke-width="2" d="M528.5485,-143.8314C519.4884,-135.1337 508.4932,-124.5783 498.6476,-115.1265"/>
<polygon fill="#c0c0c0" stroke="#c0c0c0" stroke-width="2" points="501.0315,-112.5633 491.3937,-108.1628 496.1838,-117.613 501.0315,-112.5633"/>
</g>
</g>
</svg>
